<?xml version="1.0" encoding="UTF-8"?>
<svg xmlns="http://www.w3.org/2000/svg" xmlns:xlink="http://www.w3.org/1999/xlink" width="24px" height="34px" viewBox="0 0 24 33" version="1.1">
<g id="surface1">
<path style=" stroke:none;fill-rule:nonzero;fill:rgb(100%,100%,100%);fill-opacity:1;" d="M 0 2.769531 L 24 2.769531 L 24 33 L 0 33 Z M 0 2.769531 "/>
<path style=" stroke:none;fill-rule:nonzero;fill:rgb(95.294118%,91.764706%,67.450982%);fill-opacity:1;" d="M 2.222656 1.121094 L 20.511719 0 L 21.277344 0 L 20.511719 1.121094 L 21.777344 1.535156 L 20.511719 2.769531 L 21.277344 3.855469 L 20.511719 3.855469 L 21.777344 4.414062 L 2.796875 5.574219 L 4.140625 4.414062 L 2.796875 3.855469 L 4.140625 2.769531 L 3.296875 2.769531 L 4.140625 2.355469 Z M 2.222656 1.121094 "/>
<path style=" stroke:none;fill-rule:nonzero;fill:rgb(11.764706%,11.764706%,11.764706%);fill-opacity:1;" d="M 2.605469 5.613281 L 21.394531 5.613281 L 21.394531 27.011719 L 2.605469 27.011719 Z M 2.605469 5.613281 "/>
<path style=" stroke:none;fill-rule:evenodd;fill:rgb(0%,0%,0%);fill-opacity:0.14902;" d="M 14.417969 14.632812 C 14.796875 14.632812 15.105469 14.933594 15.105469 15.300781 L 15.105469 17.984375 C 15.105469 18.351562 14.796875 18.652344 14.417969 18.652344 L 9.582031 18.652344 C 9.203125 18.652344 8.894531 18.351562 8.894531 17.984375 L 8.894531 15.300781 C 8.894531 14.933594 9.203125 14.632812 9.582031 14.632812 L 10.445312 14.632812 C 10.636719 14.632812 10.792969 14.480469 10.792969 14.296875 C 10.792969 14.113281 10.945312 13.960938 11.136719 13.960938 L 12.863281 13.960938 C 13.054688 13.960938 13.207031 14.113281 13.207031 14.296875 C 13.207031 14.480469 13.363281 14.632812 13.554688 14.632812 Z M 12 17.648438 C 12.570312 17.648438 13.035156 17.199219 13.035156 16.640625 C 13.035156 16.085938 12.570312 15.636719 12 15.636719 C 11.429688 15.636719 10.964844 16.085938 10.964844 16.640625 C 10.964844 17.199219 11.429688 17.648438 12 17.648438 Z M 12 17.648438 "/>
<path style="fill:none;stroke-width:22.5833;stroke-linecap:round;stroke-linejoin:round;stroke:rgb(0%,0%,0%);stroke-opacity:1;stroke-miterlimit:4;" d="M 494.074707 606.018939 L 494.074707 515.589962 C 494.074707 503.216856 483.98112 493.081439 471.587728 493.081439 L 443.351237 493.081439 C 437.090658 493.081439 431.97998 487.947917 431.97998 481.761364 C 431.97998 475.574811 426.99707 470.441288 420.736491 470.441288 L 364.263509 470.441288 C 358.00293 470.441288 353.02002 475.574811 353.02002 481.761364 C 353.02002 487.947917 347.909342 493.081439 341.648763 493.081439 L 313.412272 493.081439 C 301.01888 493.081439 290.925293 503.216856 290.925293 515.589962 L 290.925293 606.018939 C 290.925293 618.392045 301.01888 628.527462 313.412272 628.527462 L 471.587728 628.527462 C 483.98112 628.527462 494.074707 618.392045 494.074707 606.018939 Z M 494.074707 606.018939 " transform="matrix(0.0305732,0,0,0.0296763,0,0)"/>
<path style="fill:none;stroke-width:22.5833;stroke-linecap:round;stroke-linejoin:round;stroke:rgb(0%,0%,0%);stroke-opacity:1;stroke-miterlimit:4;" d="M 426.358236 560.738636 C 426.358236 579.561553 411.153971 594.698864 392.5 594.698864 C 373.846029 594.698864 358.641764 579.561553 358.641764 560.738636 C 358.641764 542.047348 373.846029 526.910038 392.5 526.910038 C 411.153971 526.910038 426.358236 542.047348 426.358236 560.738636 Z M 426.358236 560.738636 " transform="matrix(0.0305732,0,0,0.0296763,0,0)"/>
<path style=" stroke:none;fill-rule:nonzero;fill:rgb(0%,0%,0%);fill-opacity:1;" d="M 4.957031 28.703125 C 5.03125 28.703125 5.097656 28.734375 5.148438 28.800781 C 5.199219 28.863281 5.269531 29 5.351562 29.203125 C 5.542969 29.6875 5.730469 30.445312 5.914062 31.480469 C 5.917969 31.492188 5.917969 31.507812 5.917969 31.53125 C 5.917969 31.554688 5.902344 31.578125 5.875 31.605469 C 5.847656 31.628906 5.804688 31.640625 5.75 31.640625 C 5.699219 31.640625 5.652344 31.628906 5.617188 31.605469 C 5.578125 31.578125 5.554688 31.535156 5.542969 31.480469 C 5.53125 31.417969 5.507812 31.304688 5.472656 31.136719 C 5.402344 30.757812 5.351562 30.5625 5.328125 30.546875 C 5.292969 30.527344 5.167969 30.503906 4.960938 30.480469 C 4.757812 30.457031 4.621094 30.445312 4.554688 30.445312 C 4.484375 30.445312 4.445312 30.453125 4.433594 30.464844 C 4.378906 30.511719 4.304688 30.871094 4.207031 31.546875 C 4.195312 31.601562 4.136719 31.628906 4.035156 31.628906 C 3.929688 31.628906 3.878906 31.585938 3.878906 31.5 C 3.878906 31.289062 3.960938 30.878906 4.121094 30.277344 C 4.285156 29.675781 4.417969 29.277344 4.523438 29.078125 C 4.660156 28.828125 4.804688 28.703125 4.957031 28.703125 Z M 4.9375 29.195312 C 4.890625 29.195312 4.8125 29.328125 4.699219 29.589844 C 4.585938 29.851562 4.53125 30.015625 4.53125 30.078125 C 4.53125 30.089844 4.53125 30.101562 4.539062 30.109375 C 4.5625 30.132812 4.660156 30.152344 4.828125 30.171875 C 4.996094 30.1875 5.109375 30.195312 5.164062 30.195312 C 5.21875 30.195312 5.25 30.195312 5.253906 30.1875 C 5.261719 30.179688 5.261719 30.15625 5.261719 30.117188 C 5.261719 30.074219 5.222656 29.914062 5.140625 29.628906 C 5.058594 29.339844 4.988281 29.195312 4.9375 29.195312 Z M 7.277344 29.550781 L 7.273438 28.691406 C 7.273438 28.53125 7.324219 28.453125 7.429688 28.453125 C 7.535156 28.453125 7.597656 28.496094 7.609375 28.585938 C 7.613281 28.625 7.621094 28.855469 7.632812 29.285156 C 7.640625 29.710938 7.652344 30.113281 7.671875 30.488281 C 7.695312 30.859375 7.703125 31.210938 7.703125 31.53125 C 7.703125 31.621094 7.636719 31.667969 7.5 31.667969 C 7.40625 31.667969 7.359375 31.605469 7.359375 31.480469 C 7.230469 31.578125 7.074219 31.628906 6.894531 31.628906 C 6.664062 31.628906 6.476562 31.546875 6.332031 31.382812 C 6.191406 31.214844 6.121094 31.011719 6.121094 30.765625 C 6.121094 30.523438 6.171875 30.296875 6.273438 30.085938 C 6.378906 29.871094 6.539062 29.71875 6.753906 29.628906 C 6.890625 29.570312 7.019531 29.542969 7.144531 29.542969 C 7.191406 29.542969 7.234375 29.546875 7.277344 29.550781 Z M 7.300781 30.160156 C 7.28125 30.097656 7.253906 30.046875 7.222656 30.015625 C 7.191406 29.980469 7.160156 29.957031 7.121094 29.953125 C 7.089844 29.941406 7.046875 29.9375 7 29.9375 C 6.949219 29.9375 6.890625 29.957031 6.820312 29.992188 C 6.75 30.027344 6.691406 30.085938 6.640625 30.164062 C 6.542969 30.324219 6.492188 30.496094 6.492188 30.671875 C 6.492188 30.847656 6.527344 30.992188 6.597656 31.105469 C 6.671875 31.214844 6.773438 31.269531 6.90625 31.269531 C 7.042969 31.269531 7.148438 31.207031 7.222656 31.078125 C 7.300781 30.949219 7.335938 30.789062 7.335938 30.589844 C 7.335938 30.367188 7.324219 30.222656 7.300781 30.160156 Z M 9.066406 29.550781 L 9.058594 28.691406 C 9.058594 28.53125 9.113281 28.453125 9.214844 28.453125 C 9.324219 28.453125 9.382812 28.496094 9.394531 28.585938 C 9.402344 28.625 9.410156 28.855469 9.417969 29.285156 C 9.425781 29.710938 9.441406 30.113281 9.460938 30.488281 C 9.480469 30.859375 9.492188 31.210938 9.492188 31.53125 C 9.492188 31.621094 9.421875 31.667969 9.285156 31.667969 C 9.195312 31.667969 9.148438 31.605469 9.148438 31.480469 C 9.015625 31.578125 8.859375 31.628906 8.679688 31.628906 C 8.449219 31.628906 8.265625 31.546875 8.121094 31.382812 C 7.980469 31.214844 7.910156 31.011719 7.910156 30.765625 C 7.910156 30.523438 7.960938 30.296875 8.0625 30.085938 C 8.164062 29.871094 8.324219 29.71875 8.542969 29.628906 C 8.675781 29.570312 8.808594 29.542969 8.933594 29.542969 C 8.976562 29.542969 9.023438 29.546875 9.066406 29.550781 Z M 9.089844 30.160156 C 9.066406 30.097656 9.039062 30.046875 9.011719 30.015625 C 8.980469 29.980469 8.945312 29.957031 8.910156 29.953125 C 8.875 29.941406 8.835938 29.9375 8.785156 29.9375 C 8.738281 29.9375 8.675781 29.957031 8.605469 29.992188 C 8.535156 30.027344 8.476562 30.085938 8.425781 30.164062 C 8.328125 30.324219 8.28125 30.496094 8.28125 30.671875 C 8.28125 30.847656 8.316406 30.992188 8.386719 31.105469 C 8.460938 31.214844 8.5625 31.269531 8.695312 31.269531 C 8.828125 31.269531 8.933594 31.207031 9.011719 31.078125 C 9.085938 30.949219 9.125 30.789062 9.125 30.589844 C 9.125 30.367188 9.113281 30.222656 9.089844 30.160156 Z M 10.898438 31.179688 C 10.878906 30.875 10.867188 30.460938 10.867188 29.941406 C 10.867188 29.421875 10.875 29.082031 10.890625 28.929688 C 10.90625 28.832031 10.972656 28.769531 11.09375 28.742188 C 11.210938 28.707031 11.371094 28.691406 11.566406 28.691406 C 11.851562 28.691406 12.09375 28.753906 12.289062 28.875 C 12.488281 28.992188 12.585938 29.171875 12.585938 29.40625 C 12.585938 29.597656 12.558594 29.757812 12.503906 29.890625 C 12.449219 30.015625 12.382812 30.113281 12.296875 30.175781 C 12.164062 30.277344 11.964844 30.324219 11.703125 30.324219 C 11.589844 30.324219 11.441406 30.3125 11.257812 30.28125 C 11.273438 30.875 11.277344 31.25 11.277344 31.402344 C 11.273438 31.558594 11.21875 31.636719 11.117188 31.636719 C 11.046875 31.636719 11.003906 31.621094 10.988281 31.597656 C 10.96875 31.574219 10.957031 31.558594 10.949219 31.550781 C 10.945312 31.539062 10.9375 31.523438 10.933594 31.5 C 10.925781 31.480469 10.921875 31.464844 10.917969 31.453125 C 10.914062 31.4375 10.914062 31.417969 10.910156 31.390625 C 10.910156 31.363281 10.90625 31.34375 10.90625 31.328125 C 10.902344 31.285156 10.898438 31.234375 10.898438 31.179688 Z M 12.207031 29.417969 C 12.207031 29.296875 12.140625 29.203125 12.003906 29.132812 C 11.871094 29.0625 11.726562 29.027344 11.574219 29.027344 C 11.421875 29.027344 11.3125 29.039062 11.253906 29.066406 C 11.242188 29.242188 11.234375 29.402344 11.234375 29.550781 C 11.234375 29.695312 11.242188 29.828125 11.253906 29.949219 C 11.335938 29.957031 11.390625 29.964844 11.421875 29.96875 C 11.503906 29.980469 11.570312 29.984375 11.625 29.984375 C 11.683594 29.984375 11.722656 29.984375 11.738281 29.984375 C 11.761719 29.980469 11.800781 29.976562 11.855469 29.96875 C 11.910156 29.960938 11.953125 29.949219 11.976562 29.929688 C 12.003906 29.914062 12.03125 29.886719 12.070312 29.859375 C 12.105469 29.828125 12.132812 29.796875 12.148438 29.757812 C 12.1875 29.648438 12.207031 29.535156 12.207031 29.417969 Z M 13.511719 30.191406 L 13.546875 31.242188 C 13.546875 31.375 13.542969 31.449219 13.53125 31.46875 C 13.523438 31.523438 13.503906 31.566406 13.476562 31.59375 C 13.449219 31.625 13.390625 31.640625 13.308594 31.640625 C 13.269531 31.640625 13.238281 31.617188 13.214844 31.566406 C 13.1875 31.519531 13.175781 31.460938 13.171875 31.398438 C 13.152344 30.875 13.121094 30.386719 13.085938 29.929688 C 13.050781 29.46875 13.035156 29.042969 13.035156 28.648438 C 13.035156 28.585938 13.054688 28.535156 13.097656 28.5 C 13.140625 28.464844 13.191406 28.449219 13.25 28.449219 C 13.335938 28.449219 13.386719 28.519531 13.402344 28.660156 C 13.417969 28.804688 13.429688 28.980469 13.433594 29.195312 C 13.441406 29.410156 13.445312 29.566406 13.453125 29.664062 C 13.605469 29.585938 13.757812 29.546875 13.910156 29.546875 C 14.265625 29.546875 14.488281 29.699219 14.585938 30 C 14.640625 30.171875 14.667969 30.394531 14.667969 30.664062 C 14.667969 30.753906 14.65625 30.894531 14.640625 31.085938 C 14.625 31.277344 14.613281 31.402344 14.613281 31.457031 C 14.609375 31.511719 14.582031 31.558594 14.535156 31.589844 C 14.488281 31.621094 14.4375 31.636719 14.382812 31.636719 C 14.296875 31.636719 14.253906 31.589844 14.253906 31.5 L 14.285156 30.726562 C 14.285156 30.660156 14.285156 30.554688 14.277344 30.402344 C 14.269531 30.25 14.238281 30.128906 14.179688 30.042969 C 14.125 29.953125 14.027344 29.90625 13.886719 29.90625 C 13.636719 29.90625 13.511719 30.003906 13.511719 30.191406 Z M 15.757812 29.558594 C 15.976562 29.558594 16.160156 29.664062 16.300781 29.867188 C 16.441406 30.074219 16.515625 30.320312 16.515625 30.605469 C 16.515625 30.890625 16.441406 31.136719 16.292969 31.335938 C 16.152344 31.539062 15.957031 31.640625 15.71875 31.640625 C 15.480469 31.640625 15.285156 31.535156 15.140625 31.332031 C 14.992188 31.125 14.917969 30.894531 14.917969 30.640625 C 14.917969 30.320312 14.984375 30.0625 15.121094 29.867188 C 15.265625 29.664062 15.476562 29.558594 15.757812 29.558594 Z M 15.703125 29.925781 C 15.574219 29.925781 15.46875 29.992188 15.386719 30.121094 C 15.304688 30.253906 15.261719 30.390625 15.261719 30.535156 C 15.261719 30.761719 15.308594 30.933594 15.402344 31.050781 C 15.492188 31.171875 15.597656 31.230469 15.710938 31.230469 C 15.921875 31.230469 16.054688 31.140625 16.113281 30.96875 C 16.136719 30.882812 16.148438 30.78125 16.148438 30.65625 C 16.148438 30.167969 16 29.925781 15.703125 29.925781 Z M 16.910156 29.554688 L 17.140625 29.558594 C 17.191406 29.558594 17.222656 29.558594 17.226562 29.554688 L 17.226562 28.644531 C 17.230469 28.59375 17.257812 28.550781 17.304688 28.515625 C 17.355469 28.480469 17.398438 28.460938 17.441406 28.460938 C 17.484375 28.460938 17.519531 28.472656 17.542969 28.5 C 17.570312 28.527344 17.582031 28.570312 17.582031 28.625 C 17.578125 28.683594 17.574219 28.992188 17.574219 29.550781 L 18.113281 29.535156 C 18.203125 29.535156 18.25 29.585938 18.25 29.691406 C 18.25 29.765625 18.226562 29.824219 18.175781 29.863281 C 18.128906 29.902344 18.082031 29.921875 18.023438 29.925781 C 17.972656 29.929688 17.921875 29.929688 17.871094 29.929688 L 17.589844 29.925781 C 17.589844 30.046875 17.601562 30.289062 17.625 30.648438 C 17.652344 31.003906 17.675781 31.238281 17.691406 31.34375 C 17.707031 31.449219 17.707031 31.519531 17.699219 31.550781 C 17.691406 31.578125 17.671875 31.601562 17.648438 31.613281 C 17.609375 31.628906 17.554688 31.640625 17.488281 31.640625 C 17.421875 31.640625 17.382812 31.605469 17.371094 31.53125 C 17.308594 31.144531 17.265625 30.609375 17.246094 29.929688 C 17.21875 29.933594 17.113281 29.933594 16.929688 29.933594 C 16.746094 29.933594 16.652344 29.882812 16.652344 29.777344 C 16.652344 29.628906 16.738281 29.554688 16.910156 29.554688 Z M 19.183594 29.558594 C 19.40625 29.558594 19.585938 29.664062 19.726562 29.867188 C 19.871094 30.074219 19.941406 30.320312 19.941406 30.605469 C 19.941406 30.890625 19.867188 31.136719 19.722656 31.335938 C 19.578125 31.539062 19.382812 31.640625 19.144531 31.640625 C 18.90625 31.640625 18.710938 31.535156 18.566406 31.332031 C 18.417969 31.125 18.34375 30.894531 18.34375 30.640625 C 18.34375 30.320312 18.414062 30.0625 18.546875 29.867188 C 18.691406 29.664062 18.902344 29.558594 19.183594 29.558594 Z M 19.128906 29.925781 C 19 29.925781 18.894531 29.992188 18.8125 30.121094 C 18.730469 30.253906 18.6875 30.390625 18.6875 30.535156 C 18.6875 30.761719 18.734375 30.933594 18.828125 31.050781 C 18.917969 31.171875 19.023438 31.230469 19.136719 31.230469 C 19.347656 31.230469 19.480469 31.140625 19.539062 30.96875 C 19.5625 30.882812 19.574219 30.78125 19.574219 30.65625 C 19.574219 30.167969 19.425781 29.925781 19.128906 29.925781 Z M 19.128906 29.925781 "/>
</g>
</svg>
