<svg width="282" height="282" viewBox="0 0 282 282" fill="none" xmlns="http://www.w3.org/2000/svg">
<g clip-path="url(#clip0_111_115)">
<path fill-rule="evenodd" clip-rule="evenodd" d="M81.057 21.8574C100.808 23.2886 121.388 32.9165 141.088 52.4021C160.784 32.9219 181.346 23.3124 201.078 21.913C223.348 20.3336 243.036 29.3345 257.281 43.5354C285.285 71.4562 294.08 121.979 259.329 156.73C259.212 156.847 259.092 156.962 258.969 157.073L147.849 257.726C144.012 261.2 138.164 261.2 134.327 257.726L23.2073 157.073C23.0844 156.962 22.9644 156.847 22.8471 156.73C-12.0852 121.798 -3.33774 71.2693 24.7595 43.3702C39.0386 29.1917 58.7663 20.2424 81.057 21.8574Z" fill="#FF1515"/>
</g>
<defs>
<clipPath id="clip0_111_115">
<rect width="282" height="282" fill="white"/>
</clipPath>
</defs>
</svg>
