<svg width="325" height="326" viewBox="0 0 325 326" fill="none" xmlns="http://www.w3.org/2000/svg">
<path fill-rule="evenodd" clip-rule="evenodd" d="M51.5467 84.3037C63.736 72.0806 80.2661 65.214 97.5017 65.214C114.737 65.214 131.267 72.0806 143.457 84.3037L162.502 103.391L181.547 84.3037C187.543 78.0764 194.715 73.1094 202.645 69.6923C210.576 66.2752 219.105 64.4766 227.736 64.4014C236.366 64.3262 244.925 65.9758 252.914 69.2541C260.902 72.5325 268.159 77.3738 274.262 83.4956C280.365 89.6174 285.192 96.8971 288.46 104.91C291.728 112.923 293.373 121.508 293.298 130.165C293.223 138.823 291.43 147.378 288.023 155.333C284.617 163.288 279.665 170.482 273.457 176.497L162.502 287.809L51.5467 176.497C39.3611 164.27 32.5156 147.689 32.5156 130.4C32.5156 113.111 39.3611 96.5305 51.5467 84.3037V84.3037Z" stroke="black" stroke-width="25.1667" stroke-linejoin="round"/>
</svg>
