<svg width="1013" height="1112" viewBox="0 0 1013 1112" fill="none" xmlns="http://www.w3.org/2000/svg">
<rect x="0.623802" y="93.9209" width="1011.75" height="1017.46" fill="white" stroke="black" stroke-width="1.2476"/>
<path d="M865.758 0.623802H896.752L865.269 37.4176L864.62 38.176L865.586 38.4269L917.762 51.9773L865.359 92.805L864.835 93.2132L865.275 93.7105L896.721 129.236H865.743L865.534 130.447L915.951 148.302L120.285 187.125L175.121 149.284L176.149 148.575L174.964 148.179L119.559 129.679L175.105 93.8211L176.883 92.6733H174.767H142.486L174.993 80.0098L176.283 79.5071L175.052 78.8738L96.2103 38.3323L865.743 0.623802H865.758Z" fill="#F3EAAC" stroke="black" stroke-width="1.2476"/>
<path d="M110.038 189.116H902.962V910.277H110.038V189.116Z" fill="#1E1E1E"/>
<path d="M658.91 711.4L765.998 815M488.498 408C549.802 408 599.498 457.696 599.498 519M731.465 538.733C731.465 672.239 623.237 780.466 489.732 780.466C356.226 780.466 247.998 672.239 247.998 538.733C247.998 405.227 356.226 297 489.732 297C623.237 297 731.465 405.227 731.465 538.733Z" stroke="white" stroke-width="50.0053" stroke-linecap="round"/>
</svg>
